<svg class="vL6BBg" viewBox="0 0 219.5 219.5"><path class="SQ2ADw _682gpw" d="M6.4 146.6c-.6-1.6-1.1-3.3-1.6-4.9l137-137c1.6.5 3.3 1 4.9 1.6L6.4 146.6zM125.8 1.2c-1.9-.3-3.9-.5-5.8-.7L.5 120c.2 1.9.4 3.9.7 5.8L125.8 1.2zm46.6 18.4c-1.3-.9-2.6-1.8-3.9-2.6L17 168.5c.8 1.3 1.7 2.6 2.6 3.9L172.4 19.6zm-16.5-9.5c-1.5-.7-3-1.4-4.5-2L8.2 151.3c.6 1.5 1.3 3 2 4.5L155.9 10.1zm8.5 4.5c-1.4-.8-2.8-1.6-4.2-2.3l-148 148c.7 1.4 1.5 2.8 2.3 4.2L164.4 14.6zM65.7 9.2c-4.7 2.1-9.3 4.5-13.7 7.2L16.4 52c-2.8 4.4-5.2 9-7.2 13.7L65.7 9.2zM107.4 0L0 107.4c0 2.2 0 4.3.1 6.5L113.8.1c-2.1-.1-4.3-.1-6.4-.1zm112.1 109.2L109.2 219.5c2.2 0 4.5 0 6.7-.2l103.4-103.4c.1-2.2.2-4.5.2-6.7zm-39.7-83.9c-1.2-1-2.4-2-3.6-2.9L22.4 176.2c.9 1.2 1.9 2.4 2.9 3.6L179.8 25.3zM100.5.4c-2.5.2-4.9.5-7.4.9L1.3 93.1c-.4 2.5-.7 4.9-.9 7.4L100.5.4zM85.1 2.8c-3 .7-6 1.5-9 2.5L5.2 76.1c-.9 3-1.8 5.9-2.5 9L85.1 2.8zm51.5.5c-1.8-.4-3.5-.8-5.3-1.2L2.1 131.3c.4 1.8.8 3.5 1.2 5.3L136.6 3.3zm80.9 127.4c.5-2.6.9-5.1 1.2-7.7L123 218.7c2.6-.3 5.2-.7 7.7-1.2l86.8-86.8zm1.8-27.8c-.1-2-.3-4-.5-6L96.9 218.7c2 .2 4 .4 6 .5l116.4-116.3zm-1.4-11.7c-.3-1.8-.7-3.6-1.1-5.4l-131.1 131c1.8.4 3.6.8 5.4 1.1L217.9 91.2zm-31.3-59.8c-1.1-1.1-2.2-2.1-3.3-3.2l-155 155c1 1.1 2.1 2.2 3.2 3.3L186.6 31.4zm6.4 149.8c5.5-6.4 10.1-13.2 13.9-20.4l-46.1 46.1c7.2-3.8 14-8.4 20.4-13.9l11.8-11.8zm22.5-100.6c-.5-1.7-1-3.3-1.5-5L75.6 214c1.7.5 3.3 1 5 1.5L215.5 80.6zm-3.2 68.4c1.2-3.2 2.3-6.4 3.2-9.7l-76.2 76.2c3.3-.9 6.5-2 9.7-3.2l63.3-63.3zM198.7 45.4c-.9-1.2-1.8-2.5-2.8-3.7L41.7 195.8c1.2 1 2.5 1.9 3.7 2.8L198.7 45.4zm13.6 25.4c-.6-1.6-1.2-3.1-1.9-4.6L66.1 210.5c1.5.7 3.1 1.3 4.6 1.9L212.3 70.8zm-19.4-32.7c-1-1.2-2-2.3-3.1-3.4L34.7 189.8c1.1 1.1 2.3 2.1 3.4 3.1L192.9 38.1zm10.9 15.1c-.8-1.3-1.6-2.7-2.5-4L49.2 201.3c1.3.9 2.6 1.7 4 2.5L203.8 53.2zm4.6 8.5c-.7-1.4-1.4-2.9-2.2-4.3L57.4 206.2c1.4.8 2.8 1.5 4.3 2.2L208.4 61.7z" fill="#fe4370" style="touch-action: manipulation;"></path></svg>